<?xml version="1.0" encoding="UTF-8" standalone="no"?>
<!-- Created with Inkscape (http://www.inkscape.org/) -->
<svg xmlns:svg="http://www.w3.org/2000/svg" xmlns="http://www.w3.org/2000/svg" version="1.0" width="361.08899" height="502.07999" viewBox="0 0 361.089 502.08" id="Layer_1" xml:space="preserve"><defs id="defs576"/>

<path d="M 635.73,56.37 C 635.73,56.37 635.73,56.37 635.73,56.37 z" style="opacity:0.3174603;fill:#000000;fill-opacity:0.67213111;fill-rule:evenodd;stroke:none;stroke-width:1;stroke-opacity:1" id="path7196"/><path d="M 701.93,53.87 C 701.93,53.87 701.93,53.87 701.93,53.87 z" style="opacity:0.3174603;fill:#000000;fill-opacity:0.67213111;fill-rule:evenodd;stroke:none;stroke-width:1;stroke-opacity:1" id="path7174"/><path d="M 575.15,70.48 C 575.15,70.48 575.15,70.48 575.15,70.48 z" style="opacity:0.3174603;fill:#000000;fill-opacity:0.67213111;fill-rule:evenodd;stroke:none;stroke-width:1;stroke-opacity:1" id="path7144"/><path d="M 580.13,63.57 C 580.13,63.57 580.13,63.57 580.13,63.57 z" style="opacity:0.3174603;fill:#000000;fill-opacity:0.67213111;fill-rule:evenodd;stroke:none;stroke-width:1;stroke-opacity:1" id="path7142"/><path d="M 754.25,74.76 C 754.25,74.76 754.25,74.76 754.25,74.76 z" style="opacity:0.3174603;fill:#000000;fill-opacity:0.67213111;fill-rule:evenodd;stroke:none;stroke-width:1;stroke-opacity:1" id="path7132"/><path d="M 689.92,93.68 C 689.92,93.68 689.92,93.68 689.92,93.68 z" style="opacity:0.3174603;fill:#000000;fill-opacity:0.67213111;fill-rule:evenodd;stroke:none;stroke-width:1;stroke-opacity:1" id="path7032"/><path d="M 547.99,112.79 C 547.99,112.79 547.99,112.79 547.99,112.79 z" style="opacity:0.3174603;fill:#000000;fill-opacity:0.67213111;fill-rule:evenodd;stroke:none;stroke-width:1;stroke-opacity:1" id="path6912"/><path d="M 512.77,168.25 C 512.77,168.25 512.77,168.25 512.77,168.25 z" style="opacity:0.3174603;fill:#000000;fill-opacity:0.67213111;fill-rule:evenodd;stroke:none;stroke-width:1;stroke-opacity:1" id="path6620"/><path d="M 526.58,181.21 C 526.58,181.21 526.58,181.21 526.58,181.21 z" style="opacity:0.3174603;fill:#000000;fill-opacity:0.67213111;fill-rule:evenodd;stroke:none;stroke-width:1;stroke-opacity:1" id="path6556"/><path d="M 765.87,185.14 C 765.87,185.14 765.87,185.14 765.87,185.14 z" style="opacity:0.3174603;fill:#000000;fill-opacity:0.67213111;fill-rule:evenodd;stroke:none;stroke-width:1;stroke-opacity:1" id="path6494"/><path d="M 625.55,166.41 C 625.55,166.41 625.55,166.41 625.55,166.41 z" style="opacity:0.3174603;fill:#000000;fill-opacity:0.67213111;fill-rule:evenodd;stroke:none;stroke-width:1;stroke-opacity:1" id="path6430"/><path d="M 702,206.31 C 702,206.31 702,206.31 702,206.31 z" style="opacity:0.3174603;fill:#000000;fill-opacity:0.67213111;fill-rule:evenodd;stroke:none;stroke-width:1;stroke-opacity:1" id="path6362"/><path d="M 706.72,209.07 C 706.72,209.07 706.72,209.07 706.72,209.07 z" style="opacity:0.3174603;fill:#000000;fill-opacity:0.67213111;fill-rule:evenodd;stroke:none;stroke-width:1;stroke-opacity:1" id="path6356"/><path d="M 763.31,227.09 C 763.31,227.09 763.31,227.09 763.31,227.09 z" style="opacity:0.3174603;fill:#000000;fill-opacity:0.67213111;fill-rule:evenodd;stroke:none;stroke-width:1;stroke-opacity:1" id="path6300"/><path d="M 768.32,223.6 C 768.32,223.6 768.32,223.6 768.32,223.6 z" style="opacity:0.3174603;fill:#000000;fill-opacity:0.67213111;fill-rule:evenodd;stroke:none;stroke-width:1;stroke-opacity:1" id="path6294"/><path d="M 608.05,180.56 C 608.05,180.56 608.05,180.56 608.05,180.56 z" style="opacity:0.3174603;fill:#000000;fill-opacity:0.67213111;fill-rule:evenodd;stroke:none;stroke-width:1;stroke-opacity:1" id="path6272"/><path d="M 544.55,252.68 C 544.55,252.68 544.55,252.68 544.55,252.68 z" style="opacity:0.3174603;fill:#000000;fill-opacity:0.67213111;fill-rule:evenodd;stroke:none;stroke-width:1;stroke-opacity:1" id="path6186"/><path d="M 766.31,250.98 C 766.31,250.98 766.31,250.98 766.31,250.98 z" style="opacity:0.3174603;fill:#000000;fill-opacity:0.67213111;fill-rule:evenodd;stroke:none;stroke-width:1;stroke-opacity:1" id="path6108"/><path d="M 457.07,276.36 C 457.07,276.36 457.07,276.36 457.07,276.36 z" style="opacity:0.3174603;fill:#000000;fill-opacity:0.67213111;fill-rule:evenodd;stroke:none;stroke-width:1;stroke-opacity:1" id="path6028"/><path d="M 512.12,324.61 C 512.12,324.61 512.12,324.61 512.12,324.61 z" style="opacity:0.3174603;fill:#000000;fill-opacity:0.67213111;fill-rule:evenodd;stroke:none;stroke-width:1;stroke-opacity:1" id="path5746"/><path d="M 513.27,324.26 C 513.27,324.26 513.27,324.26 513.27,324.26 z" style="opacity:0.3174603;fill:#000000;fill-opacity:0.67213111;fill-rule:evenodd;stroke:none;stroke-width:1;stroke-opacity:1" id="path5742"/><path d="M 527.88,369.22 C 527.88,369.22 527.88,369.22 527.88,369.22 z" style="opacity:0.3174603;fill:#000000;fill-opacity:0.67213111;fill-rule:evenodd;stroke:none;stroke-width:1;stroke-opacity:1" id="path5738"/><path d="M 520.7,338.38 C 520.7,338.38 520.7,338.38 520.7,338.38 z" style="opacity:0.3174603;fill:#000000;fill-opacity:0.67213111;fill-rule:evenodd;stroke:none;stroke-width:1;stroke-opacity:1" id="path5736"/><path d="M 722.03,341.2 C 722.03,341.2 722.03,341.2 722.03,341.2 z" style="opacity:0.3174603;fill:#000000;fill-opacity:0.67213111;fill-rule:evenodd;stroke:none;stroke-width:1;stroke-opacity:1" id="path5714"/><path d="M 759.75,336.4 C 759.75,336.4 759.75,336.4 759.75,336.4 z" style="opacity:0.3174603;fill:#000000;fill-opacity:0.67213111;fill-rule:evenodd;stroke:none;stroke-width:1;stroke-opacity:1" id="path5686"/><path d="M 563.84,352.35 C 563.84,352.35 563.84,352.35 563.84,352.35 z" style="opacity:0.3174603;fill:#000000;fill-opacity:0.67213111;fill-rule:evenodd;stroke:none;stroke-width:1;stroke-opacity:1" id="path5678"/><path d="M 156.02,16.46 C 156.66,20.7 153.07,23.9 153.26,28.04 C 151.35,27.32 149.94,30.31 148.04,29.06 C 145.8,28.07 143.6,27.02 141.07,27.25 C 139.64,27.39 138.42,26.62 137.58,25.63 C 136.92,25.02 136,24.9 136.38,26.13 C 136.1,29.23 135.33,33.05 137.93,35.39 C 139.25,36.75 141.37,38.43 140.63,40.49 C 139.78,41.29 138.53,40.19 137.5,40.62 C 132.57,41.11 129.95,45.91 126.24,48.5 C 129.68,49.1 132.64,52.72 136.5,51.89 C 138.48,51.78 140.49,51.32 142.48,51.66 C 141.76,54.86 144.84,57.49 147.83,57.63 C 151.45,58.26 155.79,57.17 157.51,53.95 C 158.51,53.86 159.28,54.83 160.35,54.7 C 161.63,54.96 163.1,54.71 163.96,53.65 C 164.37,57.41 167.94,60.46 167.01,64.47 C 167.14,66 165.48,66.81 164.14,66.29 C 162.25,66.08 160.5,65.39 158.86,64.5 C 159.5,66.42 161.59,68.13 160.71,70.33 C 158.16,68.66 155.18,67.53 152.84,65.62 C 152.3,64.79 151.99,63.67 151,63.3 C 150.04,66.25 149.92,69.55 148.07,72.15 C 144.66,69.11 139.61,70.36 135.91,71.99 C 134.76,72.43 133.68,73.02 132.54,73.5 C 135.52,75.37 136.46,78.99 137.73,82.09 C 132.08,81.76 127.26,78.54 122.2,76.4 C 120.4,76.3 117.5,76.04 117.59,73.7 C 118.61,70.62 116.47,66.43 113.02,66.64 C 111.04,66.07 110.24,63.27 108.07,63.18 C 106.74,63.25 107.07,61.37 106.28,60.69 C 103.73,57.35 98.91,57.07 96.05,54.12 C 96.18,55.62 97.9,56.61 97.3,58.25 C 96.89,61.05 96.45,63.99 97.64,66.67 C 97.84,67.59 98.61,69.12 97.99,69.75 C 95.72,69.75 93.54,68.17 91.28,69.16 C 87.49,70.04 85.05,73.52 82.19,75.93 C 79.53,72.16 73.38,71.62 69.88,74.49 C 68.7,75.7 68.52,77.58 69.03,79.15 C 66.79,78.56 63.35,79.09 63.08,81.9 C 62.7,83.71 63.31,86.03 62,87.45 C 58.14,87.69 56.31,91.65 54.88,94.66 C 54.47,95.35 53.85,95.99 53.64,96.74 C 56.22,97.9 58.71,99.61 61.65,99.61 C 60.18,101.98 60.6,105 59.62,107.5 C 63.16,108.72 67.47,108.6 70.44,106.15 C 70.84,109.02 74.36,109.89 74.95,112.66 C 78.19,110 81.4,105.93 80.2,101.46 C 80.41,100.35 81.78,99.69 81.9,98.59 C 82.18,97.33 82.66,95.95 84.12,95.74 C 88.99,93.24 90.29,86.6 88.34,81.82 C 88.7,80.76 90.36,81.58 91.07,81.06 C 93.08,80.53 93.77,82.85 94.32,84.25 C 94.92,84.65 95.09,85.65 94.15,85.63 C 90.7,87.53 90.74,92 89.13,95.19 C 88.6,96.56 87.95,97.9 87.55,99.32 C 91.4,97.88 95.91,100.26 99.45,97.85 C 101.87,96.42 104.09,94.64 106.71,93.6 C 108.17,92.73 109.31,91.42 110.15,89.91 C 111.73,91.05 114.14,91.95 115.72,90.31 C 116.23,89.69 117.26,88.98 117.86,89.79 C 118.46,89.58 118.96,88.51 119.65,89.27 C 122.9,90.54 126.5,91.26 129.64,92.73 C 129.34,93.42 128.61,95.15 127.76,94.16 C 125.61,91.84 122.02,92.82 119.34,93.57 C 114.84,94.32 110.16,95.45 106.9,98.7 C 109.71,99.95 110.96,104.11 114.46,103.75 C 115.29,104.24 114.39,105.46 114.9,106.21 C 115.31,107.04 114.96,108.37 113.81,108.03 C 108.75,108.09 104.59,112.38 103.51,117.09 C 103.22,117.62 103.17,118.46 103.99,118.02 C 105.62,118.14 107.09,118.8 108.54,119.51 C 105.95,120.06 103.46,117.98 100.92,119.05 C 102.56,116.05 101.01,112.59 99.8,109.72 C 99.36,109.02 99.13,106.86 98.46,108.46 C 96.11,111.2 92.28,112.83 90.78,116.35 C 90.53,117.46 90.22,119.03 88.79,119.11 C 86.19,119.64 85.27,122.42 84.42,124.61 C 82.9,124.77 81.33,124.08 80.03,125.15 C 78.08,126.28 76.84,128.5 76.09,130.65 C 75.27,130.27 73.77,129.13 74.98,128.31 C 77.53,127.12 77.8,123.43 76.2,121.36 C 74.78,119.09 73.86,116.31 72.23,114.33 C 70.18,112.68 67.15,113.71 65.58,115.52 C 64.76,116.2 64.2,117.16 63.64,118.08 C 62.13,115.36 58.2,113.92 55.55,115.97 C 53.31,118.36 51.7,121.33 49.98,124.09 C 49.67,125.34 48.9,126.58 47.47,126.54 C 44.54,127.62 43.04,130.92 40.78,133.06 C 39.91,134.1 38.87,134.99 37.79,135.84 C 40.85,137.52 44.31,139.97 47.96,138.77 C 49.18,138.39 50.4,137.62 51.74,137.42 C 52.22,140.82 56.63,141.58 59.37,140.45 C 60.25,140.34 61.24,139.07 61.79,139.25 C 62.38,141.31 64.39,144.21 66.92,143.2 C 69.12,142.03 71.27,140.83 73.69,140.28 C 75.18,139.9 76.21,138.62 77.41,137.75 C 78.51,137.6 78.75,139.22 77.65,139.39 C 75.37,141.16 75.87,144.94 78.03,146.52 C 79.12,147.59 80.6,147.99 82.04,148.36 C 79.11,149.54 75.9,148.89 72.87,149.53 C 71.51,147.28 68.25,147.17 66.16,148.21 C 65.9,144.78 62.18,142.55 58.92,143.29 C 54.89,143.71 50.62,147.23 51.3,151.67 C 51.4,152.54 52.01,153.14 51.92,154.07 C 47.19,154.08 43.91,159.85 45.94,164.07 C 46.41,165.35 48.23,165.49 48.6,166.88 C 45.63,168.51 44.9,172.04 43.86,175.03 C 47.19,174.19 51.17,175.56 54,173.24 C 55.13,175.03 56.64,176.84 56.52,179.07 C 59.85,178.27 62.74,175.83 64.34,172.77 C 65.76,171.23 68.19,170.95 69.33,169.05 C 70.79,167.12 70.98,164.46 70.29,162.19 C 72.63,161.99 72.92,158.99 75.01,158.44 C 77.88,158.49 79.63,161.23 81.76,162.82 C 83.22,164.22 85.15,164.93 87.1,165.21 C 88.03,165.37 87.73,166.52 86.91,166.59 C 84.94,167.87 82.61,168.28 80.37,168.93 C 81.74,173.53 86.63,177.5 91.66,176.35 C 92.68,177.1 91.32,178.54 91.3,179.51 C 91.47,180.24 90.18,181.15 90.63,181.59 C 93.31,181.7 96.11,182.8 98.75,181.77 C 100.34,181.92 101.58,183.24 103.23,183.15 C 104.78,183.4 106.33,182.74 107.75,182.44 C 109.64,183.15 110.61,185.67 112.93,185.41 C 116.2,185.08 117.21,181.36 118.37,178.81 C 118.95,177.4 120.82,176.62 122.04,177.76 C 123.2,178.44 124.1,179.49 125.1,180.39 C 124.38,181.1 123.1,180.95 122.49,181.62 C 123.28,182.87 123.56,184.36 123.81,185.82 C 120.84,185.51 118.54,187.7 116.16,189.01 C 113.92,189.43 112.52,187.15 111.15,185.82 C 111.27,188.76 110.44,191.69 109.72,194.54 C 109.03,195.79 108.78,197.95 107.22,198.39 C 105.77,198.16 104.93,196.43 103.32,196.43 C 101.77,196.08 100.01,196.21 98.78,195.08 C 98.78,196.47 100.27,197.54 99.65,199 C 99.23,201.05 98.51,203.66 100.04,205.34 C 100.8,206.74 99.36,208.6 97.78,208.12 C 94.03,208.38 91.51,211.59 88.2,213.05 C 90.33,216.43 93.53,219.66 97.69,219.9 C 91.77,222.7 85.21,218.77 79.19,220.9 C 78.19,221.63 77.69,221.04 78.06,219.87 C 78.45,218.61 77.22,217.3 77.85,216.12 C 79.45,216.23 81.08,217.09 82.78,216.62 C 85.54,216.11 85.62,212.63 87.91,211.41 C 90.14,210.39 92.73,208.82 92.98,206.13 C 93.5,203.8 95.42,201.68 94.56,199.21 C 94.85,198.33 95.96,198.31 96.38,197.42 C 97.95,195.38 99.52,193.17 100.6,190.92 C 101.41,189.44 99.76,190.01 98.84,190.03 C 95.34,190.18 91.11,189.93 88.58,192.76 C 87.7,192.72 87.75,191.45 87.35,190.86 C 87.13,189.15 88.37,187.51 87.56,185.82 C 86.96,183.24 85.37,181.03 84.62,178.46 C 82.48,181.78 78.6,184.51 78.56,188.83 C 79.54,186.16 80.63,183.19 83.25,181.77 C 83.47,184.33 83.51,187.09 82.37,189.42 C 81.15,189.12 79.42,189.92 78.56,188.83 C 78.23,190.29 80.48,190.21 81.66,190.27 C 83.02,190.19 84.78,189.35 85.74,190.77 C 87.44,192.96 86.38,196.04 85,198.07 C 84.34,199.19 83.23,200.4 81.82,199.74 C 81.21,199.5 80,199.4 80.26,200.38 C 80.24,201.27 79.26,201.03 78.79,200.73 C 75.51,200.77 72.96,197.07 74,193.91 C 74.32,191.82 75.92,189.58 78.15,189.6 C 78.6,188.91 76.85,189.45 76.46,189.61 C 75.19,190.04 73.94,191.49 72.66,190.3 C 71.29,189.14 69.76,188.08 67.86,188.23 C 65.11,188.1 62.57,187.03 60.54,185.3 C 57.72,183.13 54.6,181.29 51.56,179.41 C 49.89,178.43 47.66,178.65 46.17,179.95 C 45,180.21 44.99,178.56 44,178.25 C 41.56,176.62 38.52,175.95 36,174.59 C 34.26,174.61 34.12,172.29 32.57,171.75 C 29.37,170.15 25.46,171.09 22.31,169.43 C 21.22,172.55 21.8,176.26 23.46,179.07 C 18.8,179.74 15.72,183.55 12.12,186.28 C 15.98,188.87 19.97,192.38 24.95,191.68 C 24.85,194.1 27.67,195.57 27.3,198.04 C 26.13,198.11 25.88,196.47 24.66,196.46 C 20.86,195.38 17.17,198.14 14.87,200.85 C 13.34,202.63 12.33,205.53 13.73,207.56 C 14.08,208.29 16.06,208.89 14.84,209.59 C 13.13,211.43 12.42,214.46 13.58,216.77 C 14.23,217.37 15.85,217.77 15.43,218.85 C 11.89,221.41 12.65,226.38 10.86,229.9 C 12.79,229.85 14.76,229.78 16.69,229.49 C 18.81,229.12 20.9,228.38 22.52,226.91 C 23.37,229.16 24.94,232 24.16,234.27 C 25.08,234.24 25.63,232.55 26.42,233.03 C 27.32,235.4 28.47,237.78 30.46,239.16 C 31.21,240.74 28.94,241.68 27.85,242.06 C 24.87,243.23 23.38,246.41 22.34,249.2 C 22.06,250.03 21.53,251.14 21.05,251.62 C 23.96,249.33 24.09,244.27 27.81,242.8 C 28.67,242.4 29.6,242.51 29.52,243.62 C 29.55,245.44 30.86,246.87 32.37,247.75 C 29.16,249.94 25.93,253.65 21.55,252.88 C 20.77,252.84 20.75,251.65 20.03,252.23 C 19.13,252.94 18.27,253.89 17.68,254.78 C 21.21,253.1 25.15,255.1 28.76,255.66 C 30.02,255.83 31.32,255.96 32.57,255.66 C 32.34,257.73 32.8,260.22 32.31,262.02 C 35.79,260.34 39.81,259.24 42.39,256.37 C 44.13,255.4 46.64,256.53 48.11,254.87 C 49.47,253.98 49.6,252.05 50.57,250.96 C 52.06,250.42 53.89,250.31 54.93,248.95 C 57.78,246.21 58.69,241.65 57.07,238.02 C 58.05,237.64 58.87,238.47 58.57,239.45 C 58.15,241.93 59.39,245.22 62.32,245 C 65.32,244.96 68.33,245.2 71.23,245.93 C 74.17,246.11 76.3,243.6 76.94,240.95 C 77.4,239.14 79.72,239.39 80.59,237.87 C 82,236.39 82.9,233.98 85.03,233.56 C 85.9,233.41 87.21,234.71 85.97,235.15 C 83.11,236.77 80.13,238.95 79.87,242.5 C 79.76,243.76 80.09,245.05 80.78,246.11 C 77.69,246.65 75.29,249.07 72.23,249.77 C 73.59,252.28 75.06,255.81 78.23,256.1 C 79.61,256.04 81.39,255.41 82.37,256.75 C 80.63,258.45 79.03,260.43 79.26,262.99 C 79.46,264.98 78.74,266.78 77.5,268.3 C 76.65,269.73 77.08,269.89 78.41,268.94 C 82.39,267.22 87.92,267.44 90.45,263.2 C 91.45,261.66 92.59,259.91 94.5,259.56 C 94.85,260.71 93.72,262.15 94.86,262.99 C 95.99,264.25 97.54,265.55 97.69,267.3 C 101.01,265.88 102.84,261.84 101.68,258.27 C 101.74,254.94 105.42,252.91 105.43,249.54 C 105.43,248.16 104.89,246.96 103.79,246.2 C 105.98,245.65 107.09,243.16 109.5,243.09 C 114.85,241.83 118.96,237.9 123.04,234.53 C 126.7,232.23 131.43,233.45 135.24,231.51 C 137.52,233.02 140.73,232.89 142.64,234.94 C 143.79,237.32 146.44,238.26 148.22,240.13 C 148.78,242.19 147.23,244.12 147.5,246.22 C 147.44,247.79 147.6,249.37 148.01,250.89 C 145.83,250.64 143.98,249.16 141.74,249.04 C 142.49,251.63 144.41,254.35 143.33,257.1 C 141.81,259.28 138.71,258.99 137.02,261.06 C 133.16,264.6 133,270.44 129.76,274.45 C 128.2,276.76 126.84,279.22 126,281.8 C 124.7,283.97 121.55,285.44 121.93,288.37 C 122.42,289.11 121.63,289.76 120.99,289.19 C 117.42,287.47 113.13,289.41 110.39,291.96 C 108.93,292.97 108.16,294.84 106.54,295.55 C 101.26,295.89 96.26,293.37 92.33,290.01 C 95.52,287.86 95.91,283.41 98.02,280.43 C 93.51,282.07 88.18,280.85 84.15,283.71 C 83.01,280.8 82.63,277.2 79.7,275.59 C 77.88,274.99 76.39,276.51 75.04,277.47 C 73.57,277.39 72.54,275.88 70.97,276.06 C 69.46,275.99 68.27,277.41 66.83,277.15 C 65.62,276.21 64.24,275.31 62.55,275.65 C 59.85,275.84 57.33,277.33 54.58,277 C 56.43,279.42 53.61,283.95 57.1,285.21 C 58.83,285.75 60.86,286.13 61.62,287.96 C 62.13,288.53 63.93,289.12 62.99,289.99 C 61.89,290.65 61.53,292.24 60.77,293.39 C 59.18,290.31 56.02,287.05 52.25,287.91 C 49.94,288.57 48.59,291.02 48.54,293.33 C 47.04,293.82 45.91,291.68 47.24,290.78 C 48.81,289.17 51.28,288.01 51.77,285.64 C 52.85,282.99 54.62,279.56 52.74,276.94 C 51.57,275.63 49.77,275.03 48.22,274.22 C 50.31,272.47 49.36,268.87 47.08,267.8 C 43.9,265.44 39.63,264.21 35.71,265.31 C 34.2,266.23 34.05,268.15 33.33,269.56 C 30.86,268.15 27.71,269.54 25.86,271.34 C 22.21,271.04 19.73,274.16 17.98,276.86 C 17.62,277.83 16.63,278.43 16.25,279.29 C 18.1,279.81 19.46,281.52 21.29,282.22 C 18.45,285.38 17.46,289.97 15.16,293.24 C 16.62,293.07 18.06,292.12 19.52,292.91 C 23.11,293.77 27.4,293.27 30.17,290.81 C 32.34,293.93 36.53,294.16 40.05,294.29 C 38.85,297.46 38.77,301.17 36.78,303.93 C 34.6,305.02 32.05,305.43 30.34,307.43 C 29.31,308.37 28.39,309.45 27.44,310.5 C 29.19,310.92 31.23,310.53 32.63,311.79 C 35.07,313.06 38.07,313.25 40.53,311.99 C 41.88,311.47 43.33,311.08 44.79,311.35 C 42.89,313.58 42.9,316.58 42.1,319.3 C 45.68,318.74 49.55,317.63 51.74,314.78 C 53.1,314.01 55.08,314.08 55.84,312.47 C 56.38,311.47 56.64,309.68 58.19,310.12 C 61.71,310.08 63.66,306.43 64.66,303.61 C 65.11,302.75 65.05,301.08 66.16,300.95 C 67.55,302.28 69.77,302.77 71.49,301.8 C 72.55,301.56 73.65,301.97 74.22,302.85 C 71.61,304.19 70.4,307.01 69.5,309.62 C 67.73,309.76 66.37,311 65.28,312.23 C 63.72,312.73 61.9,312.27 60.5,313.35 C 57.56,315.04 55.5,317.95 52.4,319.41 C 51.71,319.88 51.01,320.48 50.39,321.08 C 54.36,322.19 56.85,326.57 61.26,326.36 C 62.3,327 61.66,328.64 62.57,329.5 C 63.02,330.43 63.93,330.88 64.75,331.4 C 62.04,331.94 60.46,328.02 57.75,329.14 C 56.35,329.74 55.73,331.72 54.2,332.08 C 52.93,331.82 51.47,330.91 50.33,332.05 C 47.81,333.94 47,337.28 44.53,339.32 C 45.07,336.04 46.02,331.84 43.21,329.44 C 45.48,327.52 46,323.12 43.18,321.49 C 40.26,320.36 38.13,316.87 34.74,317.3 C 32.1,317.85 31.24,320.78 29.58,322.46 C 25.44,322.09 20.64,324.61 20.7,329.14 C 20.77,331.1 20.74,333.59 18.71,334.45 C 14.72,338.29 15.38,344.36 13.52,349.25 C 15.72,348.64 17.41,346.73 19.81,346.83 C 21.75,346.28 23.81,346.15 25.74,346.7 C 27.23,346.73 29.47,345.89 30.38,347.46 C 30.43,348.43 30.99,348.93 31.76,349.31 C 32.94,350.58 32.8,352.55 32.63,354.21 C 35.47,353.47 37.32,350.72 38.9,348.37 C 39.47,346.89 40.79,346.15 42.04,345.32 C 42.71,344.96 43.56,343.12 44,343.74 C 44.32,345.12 45.85,346.06 46.29,347.17 C 45.42,348.71 44.82,350.54 45.15,352.27 C 42.89,354.25 44.22,357.64 43.45,360.24 C 46.51,359.32 49.67,358.34 52,355.99 C 54.56,357.51 56.03,360.35 56.72,363.17 C 59.37,361.45 61.84,358.98 62.79,355.93 C 64.83,354 68.44,353.9 69.22,350.83 C 70.44,347.97 71.95,344.49 70.53,341.45 C 69.52,340.38 68.61,338.85 69.24,337.41 C 69.09,336.73 69.15,335.26 70.17,335.8 C 73.43,336.43 76.53,334.51 79.64,333.8 C 81.59,332.69 81.27,329.46 83.63,328.82 C 86.4,327.73 89.83,328.82 92.2,326.67 C 93.63,325.62 94.77,324.27 95.88,322.9 C 93.09,322.74 91.01,320.43 88.34,319.97 C 86.98,319.25 87.08,317.42 86.26,316.31 C 86.28,314.34 88.5,313.57 89.58,312.23 C 91.27,310.48 93.67,309.09 96.16,309.94 C 98.8,310.59 101.29,311.84 103.82,312.64 C 106.02,314.9 106.74,318.26 109.42,320.06 C 107.48,321.71 104.56,322.03 103.21,324.4 C 101.32,326.52 100,329.1 100.13,331.99 C 99.69,334.93 97.36,337.26 96.48,339.97 C 94.73,343.28 93.21,347.15 89.84,349.08 C 87.91,349.46 85.75,349.1 84.14,350.5 C 82.6,351.69 81.99,353.67 82.37,355.55 C 79.53,354.98 75.99,356.82 76.59,360.04 C 77.15,361.84 77.91,363.89 76.74,365.61 C 76.04,367.22 75.79,369.95 77.91,370.53 C 79.11,370.98 77.99,372.01 77.44,372.47 C 75.16,375.44 75.38,379.44 74.72,383.02 C 77.01,382.42 78.74,380.17 81.28,380.53 C 83.37,380.49 85.2,379.33 86.38,377.68 C 87.69,376.7 89.11,377.96 89.51,379.24 C 89.98,380.28 90.93,382.44 92.36,381.46 C 95.73,379.16 94.49,374.04 97.43,371.5 C 98.23,370.75 98.13,372.6 98.84,372.91 C 101.22,375.37 105.08,374.95 108.1,376.01 C 108.51,374.84 108.27,373.17 108.42,371.82 C 108.51,368.53 107.5,365 104.73,363.09 C 102.96,361.69 104.66,359.29 103.76,357.49 C 102.84,355.42 100.21,356.66 98.49,356.25 C 98.69,355.64 99.31,354.53 99.1,353.59 C 98.94,352.25 98.32,350.86 99.29,349.66 C 100.88,346.3 102.25,342.57 101.4,338.76 C 100.81,334.91 99.9,330.55 102.3,327.13 C 104.37,323.55 108.03,320.04 112.49,320.62 C 113.43,320.78 114.24,321.19 114.99,321.79 C 110.36,322.45 107.39,326.69 106.25,330.84 C 105.6,331.57 106.12,331.88 106.89,331.6 C 108.33,331.45 109.66,332.11 110.97,332.54 C 107.12,335.36 107.24,340.62 106.25,344.85 C 105.76,347.29 104.48,349.71 102.47,351.07 C 104,352.25 104.27,354.55 105.99,355.58 C 104.84,359.01 105.77,363.71 109.48,365.06 C 114.34,367.07 119.62,365.43 124.54,364.7 C 125.41,364.62 124.42,363.49 123.87,363.61 C 120.72,362.32 120.41,358.35 118.71,355.73 C 118.48,354.88 117.05,354.11 117.36,353.53 C 119.02,352.52 120.14,350.86 121.7,349.69 C 116.96,349.36 113.17,345.5 108.27,346.47 C 107.39,347.09 107.27,345.9 107.84,345.45 C 109.48,341.8 108.81,336.84 112.23,334.22 C 113.1,333.58 114.62,333.9 114.87,332.69 C 116,331.05 119.55,332.18 118.68,334.36 C 117.97,338.31 122.23,341.02 122.02,344.88 C 123.54,344.64 124.99,343.7 126.3,342.86 C 128.66,341.1 129.71,338.24 129.9,335.42 C 130.12,334.02 131.81,332.21 133.19,333.39 C 134.08,333.75 134.71,335.78 135.3,335.18 C 136.18,335.99 136.75,337.34 137.89,338.05 C 139.01,338.86 139.52,340.54 138.7,341.69 C 138.07,343.45 137.79,346.04 139.25,347.38 C 142.68,349.01 143.7,353.15 146.58,355.32 C 148.08,355.24 149.54,356.01 149.73,357.6 C 152.8,365.82 151.45,374.83 151.68,383.43 C 151.61,387.86 152.82,392.19 153.04,396.59 C 153.01,400.81 149.84,403.92 147.21,406.87 C 144.68,409.74 141.18,411.43 138.26,413.68 C 136.02,415.5 134.54,418.35 135.45,421.32 C 136.47,425.61 139.02,429.46 138.87,434.04 C 139.16,436.07 138.98,438.35 139.78,440.21 C 141.44,441.69 143.24,443.51 143.02,445.95 C 143.52,451.41 139.48,456.13 134.68,458.16 C 129.24,460.73 123.55,462.36 118.04,464.83 C 110.43,467.95 102.99,471.73 96.38,476.6 C 93.93,477.91 91.06,478.64 88.99,480.39 C 86.65,481.92 83.17,482.92 82.45,485.99 C 82.36,486.71 82.56,487.36 83.25,486.72 C 86.69,485.56 90.66,487.36 93.9,485.34 C 99.56,483.06 105.94,482.88 111.9,484.09 C 114.36,484.23 116.49,485.95 119,485.28 C 122.94,484.35 127.02,484.1 130.86,482.72 C 136.02,481.15 141.18,478.98 146.64,478.95 C 147.69,479.19 148.85,478.83 149.77,478.69 C 151.55,480.1 154.3,480.07 156.26,479.13 C 157.05,478.36 158.26,479.21 159.24,478.69 C 162.7,477.86 166.04,476.5 169.61,476.24 C 173.57,475.77 177.43,476.93 181.13,478.18 C 183.87,479.02 186.72,478.43 189.4,477.69 C 193.51,477.05 197.46,478.91 201.35,479.74 C 202.68,480.23 203.49,481.59 204.93,481.79 C 208.5,482.77 212.26,482.2 215.88,482.9 C 222.8,483.7 229.78,484.1 236.73,483.49 C 240.46,483.28 244.23,483.57 247.95,483.33 C 248.95,483.26 250.92,482.4 250.02,481.19 C 247.57,478.77 244.07,477.8 241.21,475.93 C 236.07,473.49 229.62,473.19 225.53,468.81 C 223.03,467.03 219.54,467.4 217.12,465.33 C 214.55,464.14 212.17,462.52 209.71,461.22 C 206.98,460.43 203.9,459.24 202.54,456.48 C 201.07,453.92 199.06,451.73 196.58,450.11 C 195,449.08 193.94,447.34 194.14,445.42 C 193.22,440.87 190.61,436.9 189.41,432.49 C 188.16,428.65 188.21,424.29 190.32,420.79 C 193.05,415.25 196.43,409.93 197.66,403.83 C 198.84,399.13 198,394.26 196.7,389.69 C 195.61,385.56 195.15,381.22 196.08,377.01 C 196.88,370.99 195.99,364.88 194.17,359.12 C 192.7,352.54 192.24,345.65 193.12,338.96 C 194.57,335.34 198.86,333.37 199.51,329.41 C 199.05,328.51 199.54,327.4 200.62,327.47 C 204.72,325.98 206.43,320.9 205.28,316.89 C 207.58,317.9 210.46,316.6 212.43,318.48 C 216.39,319.96 220.65,318.34 224.01,316.34 C 224.54,315.77 225.71,315.33 225.74,316.45 C 225.48,317.57 223.77,316.91 222.98,317.51 C 219.52,318.69 218.15,322.86 218.73,326.3 C 219.11,329.43 220.94,332.96 224.24,333.66 C 225.73,334.18 227.13,333.28 228.46,332.95 C 229.39,333.58 228.42,335.07 229.14,335.94 C 229.81,337.54 231.48,338.53 233.21,338.44 C 230.83,340.19 229.29,343.81 231.01,346.58 C 232.26,347.48 230.18,347.79 229.72,348.52 C 227.6,350.38 226.3,353.49 227.32,356.26 C 227.1,358.03 224.93,358.27 224.42,359.86 C 223.97,360.63 223.1,362.22 223.25,362.59 C 225.31,361.74 228.57,362.96 228,365.57 C 227.83,367.28 227.48,369.04 226.88,370.62 C 231.42,369.81 236.44,369.07 239.54,365.31 C 239.81,364.12 241.18,364.41 241.71,365.2 C 244.32,367.04 247.43,367.94 250.06,369.74 C 250.45,365.76 252.91,361.75 251.29,357.75 C 250.2,356.93 251.21,355.81 252.23,355.7 C 253.95,354.53 254.75,352.47 254.78,350.39 C 255.47,353.31 258.48,354.69 259.54,357.39 C 259.86,357.87 260.61,359.45 261.05,358.5 C 262.67,354.79 265.54,351.62 266.48,347.67 C 269.7,349.9 274.25,348.37 276.56,345.59 C 278.18,343.82 279.1,341.23 278.76,338.76 C 279.01,337.25 280.72,336.54 280.51,334.83 C 280.76,330.77 278.6,326.65 275.77,324.13 C 274.53,323.07 272.88,323.48 271.61,323.99 C 270.6,324.21 270.26,323.21 270.43,322.43 C 270.01,320.32 267.35,320.21 265.7,320.91 C 264.23,321.36 262.78,322.04 261.32,322.67 C 261.33,320.18 261.01,317.53 259.24,315.69 C 261.7,314.71 264.3,313.02 267,313.76 C 268.02,315.08 269.34,316.64 271.19,316.13 C 272.17,315.64 273.49,315.81 273.45,317.19 C 274.17,319.49 275.66,322.34 278.38,322.26 C 280.16,321.88 281.44,320.21 283.36,320.35 C 284.09,320.41 286.79,318.88 285.73,320.08 C 282.76,322.87 282.97,328.75 286.46,330.93 C 287.12,331.26 287.97,331.39 288.75,331.25 C 288.67,333.07 288.54,335.97 290.74,336.47 C 292.87,336.23 294.94,335.38 297.1,335.86 C 299.45,336 302.17,335.01 302.58,332.49 C 302.91,331.36 302.84,330.16 303.05,329 C 304.65,329.25 306.04,326.73 307.48,328.35 C 309.56,329.66 311.92,330.99 312.69,333.48 C 311.53,335.01 310.42,337.07 311.29,338.93 C 312.34,341.19 314.85,342.66 315.24,345.21 C 315.71,346.68 317.69,347.04 317.77,348.65 C 318.23,350.94 320.15,352.97 322.63,352.59 C 326.16,352.44 329.56,350.65 332.01,348.16 C 333.39,346.75 333.72,344.72 333.6,342.84 C 334.4,340.76 336.81,338.96 335.91,336.41 C 335.33,334.01 334.85,331.5 334.12,329.17 C 332.8,327.76 329.78,329.24 329.11,326.98 C 327.1,324.19 323.1,324.55 320.08,325.1 C 318.2,325.36 316.69,323.73 316.47,322.08 C 316.06,321.25 315.56,319.42 316.8,319.15 C 317.55,319.73 317.09,321.06 318.06,321.55 C 320.24,323.56 323.68,322.78 326.12,321.76 C 327.57,322.38 328.68,320.58 329.66,319.82 C 330.62,319.04 330.98,317.52 331.66,316.78 C 334.63,317.19 337.14,314.38 337.04,311.5 C 337.48,307.46 336.54,302.92 333.91,299.86 C 332.76,298.9 331.05,299.4 329.84,299.42 C 328.55,297.57 326.55,296.35 324.24,296.55 C 321.09,296.48 317.86,297.03 314.92,298.1 C 313.87,298.71 313.64,299.95 313.34,300.92 C 312.07,301.52 310.65,300.57 309.3,300.84 C 302.73,300.87 296.53,304.45 289.89,303.35 C 291,300.11 288.59,295.61 284.89,296.21 C 283.87,296.68 283.3,295.72 283.5,294.85 C 281.92,292.37 278.51,292.64 275.89,292.29 C 272.28,292.05 267.85,292.29 265.66,295.41 C 264.55,296.91 265.05,299.1 266.45,300.1 C 267.07,300.53 266.95,301.78 265.95,301.45 C 259.38,300.58 252.84,303.88 246.26,302.39 C 244.46,301.82 241.9,301.48 241.15,299.51 C 240.98,297.99 242.54,296.92 243.26,295.71 C 244.12,294.62 245.06,293.59 245.96,292.54 C 240.86,293.46 235.78,289.83 230.78,291.83 C 229.87,292.61 229.59,291.22 229.68,290.55 C 229.05,288.31 226.81,286.62 224.48,286.15 C 226.87,282.54 225.56,277.18 229.02,274.27 C 229.94,273.77 227.23,274.31 226.72,274.52 C 223.13,275.62 219.67,277.5 216.67,279.84 C 215.37,281.05 214.5,283.44 212.35,282.89 C 208.94,282.73 206.62,285.67 204.55,287.91 C 203.17,289.41 202.31,291.39 201.8,293.37 C 201.42,294.2 201.02,295.77 199.98,295.7 C 199.48,294.83 200.74,294.02 200.65,293.07 C 201.76,288.5 201.2,283.65 202.82,279.18 C 203.09,277.56 203.76,275.97 205.3,275.22 C 207.48,273.56 209.52,271.61 212.05,270.49 C 212.68,271.77 212.36,273.39 212.26,274.74 C 215.39,274.51 216.93,271.24 218.58,269.11 C 219.25,268.07 219.72,266.22 221.18,266.5 C 224.09,267.56 226.96,268.73 229.78,270 C 230.95,266.51 230.49,262.78 230.02,259.21 C 233.84,258.98 237.99,259.62 240.69,262.58 C 243,264.78 245.48,266.78 248.48,267.74 C 252.59,269.42 257,270.58 261.32,271.81 C 260.71,273.39 258.14,273.97 258.59,275.89 C 260.05,278.99 262.69,282.23 266.42,282.25 C 268.07,282.52 269.95,281.47 271.45,282.27 C 273.21,284.33 273.25,287.46 275.71,288.99 C 277.28,289.98 279.08,289.03 280.05,287.76 C 280.96,287.38 281.03,288.9 281.85,289.1 C 283.54,290.31 286.42,290.16 287.37,292.27 C 287.4,292.9 287.23,293.5 288.02,293.09 C 291.14,293.1 291.53,297.08 293.94,298.25 C 294.7,298.31 294.52,296.79 295.15,296.35 C 295.86,295.34 296.57,293.84 297.54,293.33 C 301.15,295.08 306.38,294.49 308.77,291.1 C 308.7,290.65 307.57,290.96 307.21,290.48 C 304.27,288.7 305.17,284.03 301.82,282.57 C 303.98,280.82 306.73,279.73 308.56,277.62 C 307.15,277.08 305.16,278.42 304.17,276.88 C 301.76,275.09 298.71,272.96 295.58,274.13 C 294.81,273.55 296.03,272.48 296.4,271.87 C 298.49,269.99 301.64,270.84 304.22,270.86 C 307.05,271.23 310.08,271.35 312.72,272.31 C 313.22,274.18 313.75,276.19 312.81,278.03 C 311.91,279.84 311.73,282.02 312.93,283.74 C 314.13,285.94 315.83,287.94 316.71,290.28 C 319.25,288.68 321.63,286.24 321.82,283.14 C 321.51,282.03 322.45,281.15 323.54,281.31 C 325.64,280.76 328.11,281.54 328.82,283.74 C 330.47,286.81 333.95,288.43 337.37,288.2 C 337.42,284.14 337.51,279.53 334.7,276.27 C 337.22,273.92 340.92,277.04 343.61,275.04 C 345.81,273.81 347.32,271.76 348.86,269.82 C 345.05,270.48 342.41,266.28 338.6,266.71 C 337.94,266.11 339.4,265.55 339.8,265.22 C 342.13,264.15 344.29,262.24 344.55,259.56 C 345.21,256.81 349.32,256.22 349.39,253.35 C 348.93,251.61 346.79,251.05 346.37,249.3 C 345.71,248.12 345.05,247.06 343.97,246.37 C 346.96,244.25 348.62,239.57 346.1,236.46 C 345.38,235.64 344.09,235.85 343.29,236.52 C 345.04,233.47 342.63,229.82 339.57,229.02 C 337.49,227.94 335.89,225.13 333.24,226.15 C 330.14,227.22 328.94,231.1 329.87,234.09 C 327.19,232.72 324.2,235.43 321.59,233.83 C 318.52,232.64 315.62,231.09 312.46,230.31 C 310.94,229.05 310.52,226.61 308.91,225.59 C 307.95,224.68 306.64,225.36 305.54,225.3 C 304.96,224.56 306.01,223.55 305.37,222.73 C 304.78,220.98 302.86,220.2 301.29,219.32 C 303.07,218.75 302.87,216.56 304.11,215.42 C 306.26,215.11 308.39,216.3 310.55,215.6 C 314.95,214.86 318.53,211.7 320.96,208.09 C 316.93,208.18 313.41,205.93 310.14,203.81 C 312.4,201.48 315.9,203.07 318.7,202.26 C 320.96,204.64 323.26,206.99 325.65,209.23 C 327.56,206.66 329.26,203.76 329.08,200.44 C 333.67,200.62 337.16,197.53 340.5,194.91 C 341.51,194.52 341.32,194.19 340.24,194.14 C 337.86,193.86 335.24,194.78 333.06,193.55 C 332.04,193.54 333.64,191.84 332.33,192.44 C 331.74,193 331.28,193.99 330.25,193.7 C 330.67,192.78 332.49,192.1 331.86,190.94 C 331.37,191.46 330.45,191.83 330.98,190.8 C 332.05,189.35 333.6,191.04 334.53,191.79 C 334.91,192.21 336.8,193.38 335.94,192.22 C 334.88,190.48 332.09,189.97 331.3,188.01 C 331.96,186.66 333.97,186.86 334.76,185.58 C 335.92,184.38 336.75,182.86 337.37,181.3 C 333.82,180.76 330.18,178.19 326.59,179.6 C 325.28,180.03 325.71,177.92 324.73,177.55 C 322.78,175.74 319.88,175 317.53,173.68 C 314.77,173.1 312.6,175.56 311.46,177.8 C 311.39,178.82 310.41,179.65 309.35,179.04 C 307.29,178.81 305.18,180.26 305.2,182.46 C 304.92,184.4 304.38,186.32 303.45,188.01 C 303.25,189.62 302.33,190.94 300.86,191.63 C 298.61,193.27 296.48,195.05 293.85,196.13 C 292.01,195.8 289.2,194.88 288.05,196.89 C 287.67,198.31 286.84,200.12 285,199.83 C 281.66,200.25 277.99,202.16 274.77,200.44 C 273.71,199.85 274.82,198.87 275.53,198.65 C 277.27,197.22 276.42,194.55 274.93,193.32 C 272.96,191.28 270.67,189.44 268.67,187.46 C 266.35,186.51 264.48,188.91 263.11,190.39 C 261.07,191.85 258.32,190.15 256.04,191.03 C 255.08,190.92 255.67,189.46 255.05,188.89 C 254.24,187.13 252.08,186.16 251.62,184.32 C 251.64,182.94 253.59,182.22 253.02,180.74 C 254.26,179.81 256.08,180.45 257.54,180.11 C 260.5,180.03 263.93,179.61 266.48,181.33 C 267.51,182.68 265.85,184.9 267.59,185.9 C 269.41,187.16 271.75,187.64 273.58,188.71 C 275.36,189.42 277.53,189.1 278.87,187.75 C 280.44,187.81 281.35,189.57 283.03,189.27 C 286.91,189.13 289.62,185.43 291.04,182.09 C 291.73,180.37 292.06,178.46 291.71,176.61 C 294.48,178.59 298.63,177.31 300.44,174.56 C 304.79,175.77 309.1,173.42 311.95,170.38 C 312.21,169.82 314.41,168.42 312.61,168.82 C 308.99,168.69 307.16,165.03 304.31,163.52 C 303.35,163.11 305.15,162.17 305.2,161.3 C 306.43,158.47 305.39,155.3 304.22,152.72 C 304.28,151.68 305.81,151.89 305.78,152.93 C 306.99,155.4 310.52,155.89 312.87,154.75 C 313.76,154.3 314.5,153.56 314.89,152.61 C 316.91,155.18 320.79,154.44 323.16,152.87 C 324.14,152.26 325.28,151.37 325.85,150.5 C 323.29,150.24 322.56,147.2 320.64,145.95 C 319.46,145.43 317.15,145.17 317.32,143.49 C 318.09,142.72 319.06,144.04 319.99,143.92 C 324.89,144.99 329.39,141.33 331.6,137.31 C 332.25,136.3 332.69,135.17 333.06,134.08 C 329.16,135.39 325.39,131.43 321.57,133.06 C 320.41,133.5 319.01,134.76 317.85,134.2 C 317.03,130.99 319.35,128.08 320.94,125.55 C 321.71,124.67 322.04,124.03 320.55,124.48 C 318.18,124.99 315.71,125.69 313.31,124.94 C 311.66,124.69 310.18,125.61 308.92,126.5 C 306.94,127.13 303.85,126.06 302.91,128.54 C 301.95,130.59 300.21,132.26 298.01,132.82 C 295.46,134.17 294.13,137.86 296.02,140.27 C 296.56,140.54 297.43,141.49 296.4,141.79 C 294.93,143.02 293,144.95 290.95,143.78 C 291.25,140.9 290.26,138.03 290.77,135.17 C 287.33,137.17 283.24,139.01 281.66,142.85 C 281.42,143.37 281.29,144.99 280.43,144.22 C 279.93,143.49 278.89,142.64 279.81,141.97 C 280.94,140.01 279.66,137.83 278.7,136.13 C 278.91,133.59 281.63,131.48 280.59,128.76 C 280,126.12 279.27,123.32 277.7,121.13 C 275.93,119.94 274.07,121.89 272.28,122.04 C 272.72,120.94 272.25,119.63 271.02,119.51 C 267.97,118.55 264.8,120.16 262.37,121.74 C 260.61,123.1 259.52,126 261,127.87 C 261.23,129.56 258.85,129.67 258.26,131.02 C 256.98,132.33 256.88,134.74 258.36,135.81 C 260.04,137.64 260,141.21 262.64,142.03 C 263.23,142.35 264.8,141.46 264.69,142.76 C 264.96,145.45 268.72,146.16 268.73,148.94 C 269.38,151.15 271.81,151.99 273.22,153.63 C 271.12,154.14 269.23,155.38 267.56,156.56 C 269.52,158.1 271.37,160.5 271.11,163.07 C 270.23,165.21 267.37,164.69 265.52,164.43 C 262.39,163.79 258.93,163.64 256.16,165.49 C 254.09,166.5 251.98,167.79 249.6,167.56 C 247.32,165.99 244.38,165.86 241.74,166.41 C 243.32,162.46 241.31,158.11 238.43,155.55 C 237.4,154.57 236.13,154.02 235.67,152.55 C 235.13,151.93 234.48,153.28 233.95,153.5 C 231.84,155.39 230.2,157.86 229.17,160.52 C 228.22,158.31 225.35,157.67 223.25,158.56 C 223.16,152.66 222.45,145.89 217.44,142.17 C 213.45,139.17 208.07,138.69 203.12,138.73 C 197.75,138.28 191.87,136.23 189.1,131.36 C 187.59,128.3 188.86,124.63 190.87,122.14 C 193.08,118.47 194.99,114.55 197.32,111.01 C 198.74,107.26 197.85,102.26 201.15,99.41 C 202.83,97.65 205.52,97.99 207.48,99 C 210.37,99.56 214,98.8 215.98,101.45 C 218.55,104.18 219.68,108.04 219.44,111.78 C 221.81,110.56 223.78,108.77 226,107.26 C 229.8,108.84 233.27,111.35 235.76,114.56 C 236.64,116.41 234.78,118.41 235.67,120.34 C 236.05,121.4 234.85,121.88 234.06,121.36 C 230.85,120.77 227.86,123.83 228.3,127.05 C 228.29,129.67 230.41,131.8 230.22,134.4 C 229.82,135.39 228.66,135.92 228.58,137.16 C 227.96,138.85 228.48,140.95 227.56,142.47 C 227.19,142.79 226.24,144.38 227.35,144.11 C 229.95,143.81 232.63,144.03 235.18,143.32 C 234.02,146.87 236.51,150.06 238.82,152.41 C 240.3,153.77 241.5,155.37 242.77,156.94 C 244.36,156.3 244.99,154.32 246.08,153.08 C 248.63,149.6 250.11,144.95 248.69,140.74 C 249.13,139.72 250.72,140.01 251.29,138.98 C 252.87,137.68 252.84,135.5 253.63,133.8 C 254.93,132.83 256.84,132.64 257.51,130.95 C 259.55,127.3 258.48,122.62 256.51,119.22 C 255.71,118.05 254.24,118.1 253.02,118.05 C 251.72,117.56 252.42,115.53 251.09,115 C 249.23,113.65 245.94,114.13 245.08,111.48 C 244.06,109.21 243.59,106.72 242.91,104.3 C 245.08,104.35 247.18,105.11 249.36,105.01 C 249.03,102.01 249.08,98.57 246.69,96.42 C 250.33,95.02 253.43,92.43 255.66,89.27 C 251.82,88.74 248.98,84.74 244.88,85.63 C 245.17,82.85 242.98,79.49 239.92,80.27 C 238.31,80.31 238.13,78.38 237.67,77.31 C 237.37,76.94 236.2,76.17 237.2,76.08 C 240.81,76.52 243,73.02 245.2,70.77 C 247.25,68.98 250.42,69.33 252.56,70.81 C 256.09,72.67 260.52,72.64 263.55,75.34 C 264.85,76.45 262.74,75.74 262.05,76.14 C 259.2,76.76 257.83,79.67 258.33,82.41 C 258.55,84.79 259.42,86.94 260.59,89 C 257.85,89.6 257.82,93.05 258.55,95.21 C 258.97,97.21 259.99,99.09 259.94,101.17 C 265.06,98.86 270.12,95.62 272.54,90.38 C 276.62,91.84 280.89,89.26 282.98,85.95 C 283.65,85.05 285.74,84.85 285.64,86.39 C 284.06,86.62 285.68,89.49 283.77,89.18 C 280.83,88.93 277.65,90.43 277.21,93.57 C 276.61,95.41 277.37,97.99 275.31,98.99 C 272.45,100.86 271.6,104.81 272.45,108 C 270.12,110.03 270.89,113.76 271.05,116.5 C 274.87,115.76 277.91,112.44 281.95,112.45 C 281.49,114.79 283.14,117.03 282.42,119.37 C 282.73,123.12 286.79,125.02 287.4,128.63 C 290.56,126.46 293.66,123.51 294.05,119.53 C 294.62,116.57 295.43,113.03 298.48,111.81 C 300.03,110.84 300.73,108.9 300.16,107.15 C 299.94,106.17 300.61,104.48 301.79,105.27 C 305.95,106.42 310.29,107.16 313.98,109.49 C 315.18,105.9 314.78,101.65 312.99,98.41 C 311.91,97.05 310.18,96.51 309.06,95.13 C 313.45,94.79 316.94,91.32 319.29,88.18 C 315.67,88.74 313.12,84.7 309.47,85.4 C 310.4,81.08 306.46,76.14 301.91,77.01 C 300.26,77.39 298.93,78.64 297.34,79.1 C 296.65,76 292.49,75.45 290.15,77.12 C 289.24,77.75 287.15,78.46 286.96,76.78 C 287.23,75.48 289.02,76.18 289.81,75.49 C 293.6,73.99 296.3,70.52 298.89,67.43 C 294.58,67.68 291.89,62.45 287.49,63.44 C 288.94,60.75 289.46,57.61 290.1,54.59 C 285.87,57.1 280.39,55.8 276.18,58.37 C 276.09,55.63 274.79,53.16 274.13,50.55 C 271.23,54.72 265.47,56.62 264.1,61.77 C 263.8,62.58 264.36,63.85 263.6,64.53 C 260.89,63.09 257.67,62.83 255.02,61.36 C 258.51,59.18 260.26,55.15 260.85,51.22 C 257.36,52.8 253.39,51.23 249.71,51.75 C 251.81,49.02 251.21,45.38 251.85,42.19 C 248.37,42.33 245.3,44.3 242.03,45.1 C 240.63,45.62 239.55,46.91 239.48,48.41 C 238.84,49.14 237.7,49.6 236.85,49.76 C 234.87,48.03 231.02,46.92 229.43,49.61 C 228.72,50.83 228.31,52.39 226.91,53.01 C 225.04,48.6 219.57,47.62 215.13,48.13 C 212.92,48.34 210.45,48.68 208.48,49.23 C 209.1,51.31 210.72,53.1 211.41,55.2 C 213.46,59.05 217.81,61.82 222.24,60.56 C 223.09,60.43 225.01,60.05 225.23,60.48 C 224.43,61.48 222.87,61.79 222.77,63.25 C 221.27,66.81 218.85,69.85 216.3,72.71 C 214.59,73.28 213.08,72.05 211.52,71.68 C 211,71.01 210.15,71.27 210.23,72.15 C 209.65,74.92 210.13,77.72 210.44,80.47 C 209.63,82.66 206.77,82.38 205.08,83.58 C 201.26,85.71 197.59,88.32 193.21,89.06 C 188.94,90.24 184.9,93.35 184.28,98 C 184.07,99.12 184.08,100.26 184.03,101.4 C 182.73,99.4 180.81,97.47 181.31,94.86 C 181.33,93.51 181.33,92.08 180.58,90.91 C 182.92,91.57 184.76,89.72 186.2,88.12 C 188.27,87.49 190.66,87.49 192.15,85.67 C 194.16,83.83 195.16,81.19 196.26,78.69 C 192.34,79.58 189.11,76.66 185.32,76.43 C 185.96,75.43 187.36,74.15 186.64,72.82 C 188.62,72.21 187.88,69.66 188.36,68.1 C 188.54,66.27 188.37,64.32 187.46,62.68 C 184.87,64.78 181.79,66.41 178.47,66.96 C 179.5,61.44 182.09,56.45 183.64,51.13 C 184.74,49.23 187.5,49.46 188.58,47.46 C 189.55,46.31 190.37,45 191.51,44.01 C 193.6,46.3 197.47,47.39 200.04,45.39 C 202.52,43.88 205.57,44.6 208.3,44.85 C 211.14,44.76 213.2,42.56 214.81,40.52 C 216.71,38.66 219.53,40.17 221.77,39.1 C 225.77,37.83 228.53,34.56 230.25,30.96 C 230.85,30.05 229.02,30.57 228.58,30.35 C 224.95,29.55 221.74,27.56 218.18,26.6 C 219.84,24.8 220.66,22.38 221.02,19.92 C 217.85,19.87 214.64,19.24 211.5,19.92 C 208.83,19.57 207.39,16.09 204.43,16.82 C 202.53,17.1 201.41,18.93 199.92,19.83 C 197.88,20.19 196.3,18.09 194.23,18.92 C 192.23,19.54 192.25,21.84 191.86,23.52 C 190.83,25.5 188.75,27.13 188.9,29.65 C 188.86,31.04 189.32,32.47 190.25,33.52 C 189.25,34.4 188.25,36.24 186.7,35.6 C 185.64,35.34 185.73,34.16 186.44,33.52 C 187.81,30.81 187.36,26.51 184.15,25.61 C 181.88,24.85 179.9,23.17 177.59,22.7 C 174.79,22.72 173.09,25.34 171.72,27.39 C 170.71,28.36 170.18,26.4 169.06,26.6 C 167.58,26.33 165.42,26.94 164.81,25.13 C 163.95,23.2 163.61,20.95 161.68,19.7 C 160.03,18.16 158.05,16.82 155.96,16.11 L 156,16.34 L 156.02,16.46 z" style="opacity:1;fill:#ffffff;fill-opacity:1;fill-rule:evenodd;stroke:#5c5c4f;stroke-width:1.99999988;stroke-miterlimit:4;stroke-dasharray:none;stroke-opacity:1" id="path7500"/></svg>